<mxfile host="app.diagrams.net" agent="Mozilla/5.0 (Windows NT 10.0; Win64; x64) AppleWebKit/537.36 (KHTML, like Gecko) Chrome/128.0.0.0 Safari/537.36 OPR/114.0.0.0" version="26.0.6">
  <diagram id="C5RBs43oDa-KdzZeNtuy" name="Page-1">
    <mxGraphModel dx="1633" dy="755" grid="1" gridSize="10" guides="1" tooltips="1" connect="1" arrows="1" fold="1" page="1" pageScale="1" pageWidth="827" pageHeight="1169" math="0" shadow="0">
      <root>
        <mxCell id="WIyWlLk6GJQsqaUBKTNV-0" />
        <mxCell id="WIyWlLk6GJQsqaUBKTNV-1" parent="WIyWlLk6GJQsqaUBKTNV-0" />
        <mxCell id="U_qTTeaLVR8pC_yWKPOL-1" value="start" style="ellipse;whiteSpace=wrap;html=1;" vertex="1" parent="WIyWlLk6GJQsqaUBKTNV-1">
          <mxGeometry x="150" y="60" width="150" height="80" as="geometry" />
        </mxCell>
        <mxCell id="U_qTTeaLVR8pC_yWKPOL-15" style="edgeStyle=orthogonalEdgeStyle;rounded=0;orthogonalLoop=1;jettySize=auto;html=1;exitX=0.5;exitY=1;exitDx=0;exitDy=0;" edge="1" parent="WIyWlLk6GJQsqaUBKTNV-1" source="U_qTTeaLVR8pC_yWKPOL-5">
          <mxGeometry relative="1" as="geometry">
            <mxPoint x="220" y="430" as="targetPoint" />
          </mxGeometry>
        </mxCell>
        <mxCell id="U_qTTeaLVR8pC_yWKPOL-5" value="Ask user for distance and speed" style="shape=parallelogram;perimeter=parallelogramPerimeter;whiteSpace=wrap;html=1;fixedSize=1;" vertex="1" parent="WIyWlLk6GJQsqaUBKTNV-1">
          <mxGeometry x="70" y="330" width="300" height="60" as="geometry" />
        </mxCell>
        <mxCell id="U_qTTeaLVR8pC_yWKPOL-14" style="edgeStyle=orthogonalEdgeStyle;rounded=0;orthogonalLoop=1;jettySize=auto;html=1;" edge="1" parent="WIyWlLk6GJQsqaUBKTNV-1" source="U_qTTeaLVR8pC_yWKPOL-7">
          <mxGeometry relative="1" as="geometry">
            <mxPoint x="225" y="320" as="targetPoint" />
          </mxGeometry>
        </mxCell>
        <mxCell id="U_qTTeaLVR8pC_yWKPOL-17" style="edgeStyle=orthogonalEdgeStyle;rounded=0;orthogonalLoop=1;jettySize=auto;html=1;" edge="1" parent="WIyWlLk6GJQsqaUBKTNV-1" source="U_qTTeaLVR8pC_yWKPOL-7" target="U_qTTeaLVR8pC_yWKPOL-18">
          <mxGeometry relative="1" as="geometry">
            <mxPoint x="440" y="195" as="targetPoint" />
          </mxGeometry>
        </mxCell>
        <mxCell id="U_qTTeaLVR8pC_yWKPOL-7" value="&lt;div&gt;More_routes = &#39;y&#39;&lt;/div&gt;&lt;div&gt;route_num = 1&lt;/div&gt;&lt;div&gt;fastest_time = 0&lt;/div&gt;" style="ellipse;whiteSpace=wrap;html=1;" vertex="1" parent="WIyWlLk6GJQsqaUBKTNV-1">
          <mxGeometry x="95" y="150" width="260" height="90" as="geometry" />
        </mxCell>
        <mxCell id="U_qTTeaLVR8pC_yWKPOL-8" style="edgeStyle=orthogonalEdgeStyle;rounded=0;orthogonalLoop=1;jettySize=auto;html=1;entryX=0.45;entryY=0;entryDx=0;entryDy=0;entryPerimeter=0;" edge="1" parent="WIyWlLk6GJQsqaUBKTNV-1" source="U_qTTeaLVR8pC_yWKPOL-1" target="U_qTTeaLVR8pC_yWKPOL-7">
          <mxGeometry relative="1" as="geometry" />
        </mxCell>
        <mxCell id="U_qTTeaLVR8pC_yWKPOL-11" style="edgeStyle=orthogonalEdgeStyle;rounded=0;orthogonalLoop=1;jettySize=auto;html=1;exitX=0.5;exitY=1;exitDx=0;exitDy=0;" edge="1" parent="WIyWlLk6GJQsqaUBKTNV-1" source="U_qTTeaLVR8pC_yWKPOL-7" target="U_qTTeaLVR8pC_yWKPOL-7">
          <mxGeometry relative="1" as="geometry" />
        </mxCell>
        <mxCell id="U_qTTeaLVR8pC_yWKPOL-12" style="edgeStyle=orthogonalEdgeStyle;rounded=0;orthogonalLoop=1;jettySize=auto;html=1;exitX=0.5;exitY=1;exitDx=0;exitDy=0;" edge="1" parent="WIyWlLk6GJQsqaUBKTNV-1" source="U_qTTeaLVR8pC_yWKPOL-7" target="U_qTTeaLVR8pC_yWKPOL-7">
          <mxGeometry relative="1" as="geometry" />
        </mxCell>
        <mxCell id="U_qTTeaLVR8pC_yWKPOL-19" style="edgeStyle=orthogonalEdgeStyle;rounded=0;orthogonalLoop=1;jettySize=auto;html=1;" edge="1" parent="WIyWlLk6GJQsqaUBKTNV-1" source="U_qTTeaLVR8pC_yWKPOL-16" target="U_qTTeaLVR8pC_yWKPOL-20">
          <mxGeometry relative="1" as="geometry">
            <mxPoint x="225" y="530" as="targetPoint" />
          </mxGeometry>
        </mxCell>
        <mxCell id="U_qTTeaLVR8pC_yWKPOL-16" value="time_hr = route_distance / route speed&lt;div&gt;fastest_time = time_hr * 60&lt;/div&gt;&lt;div&gt;fastest_route_number = roue_num&lt;/div&gt;" style="shape=parallelogram;perimeter=parallelogramPerimeter;whiteSpace=wrap;html=1;fixedSize=1;" vertex="1" parent="WIyWlLk6GJQsqaUBKTNV-1">
          <mxGeometry x="35" y="430" width="380" height="60" as="geometry" />
        </mxCell>
        <mxCell id="U_qTTeaLVR8pC_yWKPOL-18" value="route_num+1" style="shape=parallelogram;perimeter=parallelogramPerimeter;whiteSpace=wrap;html=1;fixedSize=1;" vertex="1" parent="WIyWlLk6GJQsqaUBKTNV-1">
          <mxGeometry x="380" y="165" width="250" height="60" as="geometry" />
        </mxCell>
        <mxCell id="U_qTTeaLVR8pC_yWKPOL-21" style="edgeStyle=orthogonalEdgeStyle;rounded=0;orthogonalLoop=1;jettySize=auto;html=1;exitX=0.5;exitY=1;exitDx=0;exitDy=0;" edge="1" parent="WIyWlLk6GJQsqaUBKTNV-1" source="U_qTTeaLVR8pC_yWKPOL-20" target="U_qTTeaLVR8pC_yWKPOL-22">
          <mxGeometry relative="1" as="geometry">
            <mxPoint x="240" y="680" as="targetPoint" />
          </mxGeometry>
        </mxCell>
        <mxCell id="U_qTTeaLVR8pC_yWKPOL-20" value="Ask user for more routes" style="shape=parallelogram;perimeter=parallelogramPerimeter;whiteSpace=wrap;html=1;fixedSize=1;" vertex="1" parent="WIyWlLk6GJQsqaUBKTNV-1">
          <mxGeometry x="30" y="525" width="420" height="60" as="geometry" />
        </mxCell>
        <mxCell id="U_qTTeaLVR8pC_yWKPOL-22" value="print the fastest route time" style="ellipse;whiteSpace=wrap;html=1;" vertex="1" parent="WIyWlLk6GJQsqaUBKTNV-1">
          <mxGeometry x="150" y="640" width="190" height="80" as="geometry" />
        </mxCell>
      </root>
    </mxGraphModel>
  </diagram>
</mxfile>
